<mxfile host="65bd71144e">
    <diagram id="fqqR5jw26kWLBuEo31SX" name="ページ1">
        <mxGraphModel dx="812" dy="1101" grid="1" gridSize="10" guides="1" tooltips="1" connect="1" arrows="1" fold="1" page="1" pageScale="1" pageWidth="827" pageHeight="1169" math="0" shadow="0">
            <root>
                <mxCell id="0"/>
                <mxCell id="1" parent="0"/>
                <mxCell id="2" value="対戦" style="html=1;" parent="1" vertex="1">
                    <mxGeometry x="270" y="520" width="110" height="50" as="geometry"/>
                </mxCell>
                <mxCell id="3" value="ターン" style="html=1;" parent="1" vertex="1">
                    <mxGeometry x="490" y="520" width="110" height="50" as="geometry"/>
                </mxCell>
                <mxCell id="4" value="対戦結果" style="html=1;" parent="1" vertex="1">
                    <mxGeometry x="270" y="620" width="110" height="50" as="geometry"/>
                </mxCell>
                <mxCell id="5" value="マス目" style="html=1;" parent="1" vertex="1">
                    <mxGeometry x="820" y="610" width="110" height="50" as="geometry"/>
                </mxCell>
                <mxCell id="6" value="石の種類&lt;br&gt;- 空&lt;br&gt;- 白&lt;br&gt;- 黒" style="shape=note;whiteSpace=wrap;html=1;backgroundOutline=1;darkOpacity=0.05;fillColor=#fff2cc;strokeColor=#d6b656;" parent="1" vertex="1">
                    <mxGeometry x="960" y="780" width="80" height="100" as="geometry"/>
                </mxCell>
                <mxCell id="7" value="プレイヤー" style="html=1;" parent="1" vertex="1">
                    <mxGeometry x="60" y="520" width="110" height="50" as="geometry"/>
                </mxCell>
                <mxCell id="8" value="" style="endArrow=none;html=1;edgeStyle=orthogonalEdgeStyle;" parent="1" source="7" target="2" edge="1">
                    <mxGeometry relative="1" as="geometry">
                        <mxPoint x="160" y="550" as="sourcePoint"/>
                        <mxPoint x="320" y="550" as="targetPoint"/>
                    </mxGeometry>
                </mxCell>
                <mxCell id="9" value="1" style="edgeLabel;resizable=0;html=1;align=left;verticalAlign=bottom;" parent="8" connectable="0" vertex="1">
                    <mxGeometry x="-1" relative="1" as="geometry"/>
                </mxCell>
                <mxCell id="10" value="*" style="edgeLabel;resizable=0;html=1;align=right;verticalAlign=bottom;" parent="8" connectable="0" vertex="1">
                    <mxGeometry x="1" relative="1" as="geometry"/>
                </mxCell>
                <mxCell id="11" value="" style="endArrow=none;html=1;edgeStyle=orthogonalEdgeStyle;" parent="1" source="2" target="3" edge="1">
                    <mxGeometry relative="1" as="geometry">
                        <mxPoint x="180" y="555" as="sourcePoint"/>
                        <mxPoint x="280" y="555" as="targetPoint"/>
                    </mxGeometry>
                </mxCell>
                <mxCell id="12" value="1" style="edgeLabel;resizable=0;html=1;align=left;verticalAlign=bottom;" parent="11" connectable="0" vertex="1">
                    <mxGeometry x="-1" relative="1" as="geometry"/>
                </mxCell>
                <mxCell id="13" value="*" style="edgeLabel;resizable=0;html=1;align=right;verticalAlign=bottom;" parent="11" connectable="0" vertex="1">
                    <mxGeometry x="1" relative="1" as="geometry"/>
                </mxCell>
                <mxCell id="14" value="" style="endArrow=none;html=1;edgeStyle=orthogonalEdgeStyle;" parent="1" source="2" target="4" edge="1">
                    <mxGeometry relative="1" as="geometry">
                        <mxPoint x="390" y="555" as="sourcePoint"/>
                        <mxPoint x="500" y="555" as="targetPoint"/>
                    </mxGeometry>
                </mxCell>
                <mxCell id="15" value="1" style="edgeLabel;resizable=0;html=1;align=left;verticalAlign=bottom;" parent="14" connectable="0" vertex="1">
                    <mxGeometry x="-1" relative="1" as="geometry"/>
                </mxCell>
                <mxCell id="16" value="0...1" style="edgeLabel;resizable=0;html=1;align=right;verticalAlign=bottom;" parent="14" connectable="0" vertex="1">
                    <mxGeometry x="1" relative="1" as="geometry"/>
                </mxCell>
                <mxCell id="19" value="手" style="html=1;" parent="1" vertex="1">
                    <mxGeometry x="640" y="450" width="110" height="50" as="geometry"/>
                </mxCell>
                <mxCell id="20" value="" style="endArrow=none;html=1;entryX=1;entryY=0.5;entryDx=0;entryDy=0;" parent="1" source="19" target="3" edge="1">
                    <mxGeometry relative="1" as="geometry">
                        <mxPoint x="335" y="580" as="sourcePoint"/>
                        <mxPoint x="335" y="630" as="targetPoint"/>
                    </mxGeometry>
                </mxCell>
                <mxCell id="21" value="1" style="edgeLabel;resizable=0;html=1;align=left;verticalAlign=bottom;" parent="20" connectable="0" vertex="1">
                    <mxGeometry x="-1" relative="1" as="geometry"/>
                </mxCell>
                <mxCell id="22" value="1" style="edgeLabel;resizable=0;html=1;align=right;verticalAlign=bottom;" parent="20" connectable="0" vertex="1">
                    <mxGeometry x="1" relative="1" as="geometry"/>
                </mxCell>
                <mxCell id="23" value="盤面" style="html=1;" parent="1" vertex="1">
                    <mxGeometry x="640" y="610" width="110" height="50" as="geometry"/>
                </mxCell>
                <mxCell id="24" value="" style="endArrow=none;html=1;exitX=0;exitY=0.5;exitDx=0;exitDy=0;entryX=1;entryY=0.75;entryDx=0;entryDy=0;" parent="1" source="23" target="3" edge="1">
                    <mxGeometry relative="1" as="geometry">
                        <mxPoint x="671.0714285714284" y="510" as="sourcePoint"/>
                        <mxPoint x="610" y="555" as="targetPoint"/>
                    </mxGeometry>
                </mxCell>
                <mxCell id="25" value="1" style="edgeLabel;resizable=0;html=1;align=left;verticalAlign=bottom;" parent="24" connectable="0" vertex="1">
                    <mxGeometry x="-1" relative="1" as="geometry"/>
                </mxCell>
                <mxCell id="26" value="1" style="edgeLabel;resizable=0;html=1;align=right;verticalAlign=bottom;" parent="24" connectable="0" vertex="1">
                    <mxGeometry x="1" relative="1" as="geometry"/>
                </mxCell>
                <mxCell id="27" value="石" style="html=1;" parent="1" vertex="1">
                    <mxGeometry x="820" y="730" width="110" height="50" as="geometry"/>
                </mxCell>
                <mxCell id="28" value="" style="endArrow=none;html=1;exitX=1;exitY=0.5;exitDx=0;exitDy=0;" parent="1" source="23" target="5" edge="1">
                    <mxGeometry relative="1" as="geometry">
                        <mxPoint x="390" y="555" as="sourcePoint"/>
                        <mxPoint x="500" y="555" as="targetPoint"/>
                    </mxGeometry>
                </mxCell>
                <mxCell id="29" value="1" style="edgeLabel;resizable=0;html=1;align=left;verticalAlign=bottom;" parent="28" connectable="0" vertex="1">
                    <mxGeometry x="-1" relative="1" as="geometry"/>
                </mxCell>
                <mxCell id="30" value="*" style="edgeLabel;resizable=0;html=1;align=right;verticalAlign=bottom;" parent="28" connectable="0" vertex="1">
                    <mxGeometry x="1" relative="1" as="geometry"/>
                </mxCell>
                <mxCell id="31" value="" style="endArrow=none;html=1;" parent="1" source="27" target="5" edge="1">
                    <mxGeometry relative="1" as="geometry">
                        <mxPoint x="650" y="645" as="sourcePoint"/>
                        <mxPoint x="610" y="567.5" as="targetPoint"/>
                    </mxGeometry>
                </mxCell>
                <mxCell id="32" value="0~3" style="edgeLabel;resizable=0;html=1;align=left;verticalAlign=bottom;" parent="31" connectable="0" vertex="1">
                    <mxGeometry x="-1" relative="1" as="geometry"/>
                </mxCell>
                <mxCell id="33" value="1" style="edgeLabel;resizable=0;html=1;align=right;verticalAlign=bottom;" parent="31" connectable="0" vertex="1">
                    <mxGeometry x="1" relative="1" as="geometry"/>
                </mxCell>
                <mxCell id="37" value="粒度はどのように決める？" style="shape=note;whiteSpace=wrap;html=1;backgroundOutline=1;darkOpacity=0.05;fillColor=#dae8fc;strokeColor=#6c8ebf;" parent="1" vertex="1">
                    <mxGeometry x="60" y="220" width="80" height="100" as="geometry"/>
                </mxCell>
            </root>
        </mxGraphModel>
    </diagram>
</mxfile>